<svg xmlns="http://www.w3.org/2000/svg" xmlns:xlink="http://www.w3.org/1999/xlink" width="270" zoomAndPan="magnify" viewBox="0 0 202.5 30.000001" height="40" preserveAspectRatio="xMidYMid meet" version="1.0"><defs><g/></defs><g fill="#ffffff" fill-opacity="1"><g transform="translate(52.049094, 20.685486)"><g><path d="M 8.375 -8.171875 L 14.234375 0 L 11.359375 0 L 6.65625 -6.296875 L 4.265625 -3.65625 L 4.265625 0 L 1.875 0 L 1.875 -14.21875 L 4.265625 -14.21875 L 4.265625 -6.75 L 11.046875 -14.21875 L 13.875 -14.21875 Z M 8.375 -8.171875 "/></g></g></g><g fill="#ffffff" fill-opacity="1"><g transform="translate(65.413232, 20.685486)"><g><path d="M 10.5 0 L 8.203125 0 L 8.203125 -1.328125 C 7.429688 -0.367188 6.238281 0.109375 4.625 0.109375 C 3.875 0.109375 3.207031 -0.0351562 2.625 -0.328125 C 2.050781 -0.617188 1.609375 -1.019531 1.296875 -1.53125 C 0.984375 -2.039062 0.828125 -2.613281 0.828125 -3.25 C 0.828125 -4.238281 1.1875 -5.023438 1.90625 -5.609375 C 2.625 -6.191406 3.628906 -6.488281 4.921875 -6.5 L 8.1875 -6.5 L 8.1875 -6.828125 C 8.1875 -7.515625 7.960938 -8.046875 7.515625 -8.421875 C 7.078125 -8.804688 6.441406 -9 5.609375 -9 C 4.566406 -9 3.503906 -8.632812 2.421875 -7.90625 L 1.46875 -9.53125 C 2.289062 -10.019531 3.03125 -10.367188 3.6875 -10.578125 C 4.34375 -10.785156 5.148438 -10.890625 6.109375 -10.890625 C 7.492188 -10.890625 8.566406 -10.550781 9.328125 -9.875 C 10.085938 -9.207031 10.472656 -8.28125 10.484375 -7.09375 Z M 5.125 -1.75 C 5.945312 -1.75 6.644531 -1.941406 7.21875 -2.328125 C 7.789062 -2.710938 8.113281 -3.203125 8.1875 -3.796875 L 8.1875 -4.796875 L 5.265625 -4.796875 C 4.492188 -4.796875 3.925781 -4.679688 3.5625 -4.453125 C 3.207031 -4.234375 3.03125 -3.867188 3.03125 -3.359375 C 3.03125 -2.867188 3.210938 -2.476562 3.578125 -2.1875 C 3.953125 -1.894531 4.46875 -1.75 5.125 -1.75 Z M 5.125 -1.75 "/></g></g></g><g fill="#ffffff" fill-opacity="1"><g transform="translate(76.096286, 20.685486)"><g><path d="M 8.046875 -10.890625 C 9.304688 -10.890625 10.289062 -10.519531 11 -9.78125 C 11.707031 -9.039062 12.0625 -8.019531 12.0625 -6.71875 L 12.0625 0 L 9.734375 0 L 9.734375 -6.078125 C 9.734375 -6.890625 9.5 -7.523438 9.03125 -7.984375 C 8.570312 -8.453125 7.9375 -8.6875 7.125 -8.6875 C 6.257812 -8.675781 5.550781 -8.398438 5 -7.859375 C 4.457031 -7.316406 4.144531 -6.613281 4.0625 -5.75 L 4.0625 0 L 1.734375 0 L 1.734375 -10.8125 L 4.0625 -10.8125 L 4.0625 -8.734375 C 4.789062 -10.171875 6.117188 -10.890625 8.046875 -10.890625 Z M 8.046875 -10.890625 "/></g></g></g><g fill="#ffffff" fill-opacity="1"><g transform="translate(88.343309, 20.685486)"><g><path d="M 9.15625 -10.8125 L 11.484375 -10.8125 L 11.484375 -1.0625 C 11.484375 -0.03125 11.25 0.863281 10.78125 1.625 C 10.320312 2.382812 9.671875 2.96875 8.828125 3.375 C 7.984375 3.789062 7 4 5.875 4 C 4.269531 4 2.769531 3.523438 1.375 2.578125 L 2.375 0.890625 C 2.90625 1.285156 3.441406 1.582031 3.984375 1.78125 C 4.535156 1.976562 5.128906 2.078125 5.765625 2.078125 C 6.796875 2.078125 7.617188 1.796875 8.234375 1.234375 C 8.847656 0.679688 9.15625 -0.0625 9.15625 -1 L 9.15625 -2.359375 C 8.789062 -1.765625 8.304688 -1.3125 7.703125 -1 C 7.109375 -0.6875 6.40625 -0.53125 5.59375 -0.53125 C 4.625 -0.53125 3.769531 -0.75 3.03125 -1.1875 C 2.300781 -1.625 1.734375 -2.234375 1.328125 -3.015625 C 0.921875 -3.804688 0.71875 -4.71875 0.71875 -5.75 C 0.71875 -6.757812 0.921875 -7.65625 1.328125 -8.4375 C 1.734375 -9.21875 2.300781 -9.820312 3.03125 -10.25 C 3.769531 -10.675781 4.625 -10.890625 5.59375 -10.890625 C 6.382812 -10.890625 7.082031 -10.726562 7.6875 -10.40625 C 8.300781 -10.09375 8.789062 -9.644531 9.15625 -9.0625 Z M 6.046875 -2.359375 C 6.960938 -2.359375 7.707031 -2.664062 8.28125 -3.28125 C 8.863281 -3.90625 9.15625 -4.707031 9.15625 -5.6875 C 9.15625 -6.664062 8.867188 -7.460938 8.296875 -8.078125 C 7.722656 -8.691406 6.972656 -9 6.046875 -9 C 5.128906 -9 4.378906 -8.691406 3.796875 -8.078125 C 3.210938 -7.460938 2.914062 -6.664062 2.90625 -5.6875 C 2.914062 -4.707031 3.207031 -3.90625 3.78125 -3.28125 C 4.363281 -2.664062 5.117188 -2.359375 6.046875 -2.359375 Z M 6.046875 -2.359375 "/></g></g></g><g fill="#ffffff" fill-opacity="1"><g transform="translate(100.123166, 20.685486)"><g/></g></g><g fill="#ffffff" fill-opacity="1"><g transform="translate(104.397884, 20.685486)"><g><path d="M 15.796875 0 L 11.84375 0 L 10.875 -2.515625 L 4.71875 -2.515625 L 3.71875 0 L -0.109375 0 L 6.015625 -14.234375 L 9.828125 -14.234375 Z M 7.828125 -10.4375 L 5.828125 -5.359375 L 9.765625 -5.359375 Z M 7.828125 -10.4375 "/></g></g></g><g fill="#ffffff" fill-opacity="1"><g transform="translate(118.879139, 20.685486)"><g><path d="M 6.859375 -12.34375 C 6.492188 -12.34375 6.195312 -12.238281 5.96875 -12.03125 C 5.738281 -11.832031 5.625 -11.546875 5.625 -11.171875 L 5.625 -10.46875 L 8.0625 -10.46875 L 8.0625 -8.0625 L 5.625 -8.0625 L 5.625 0 L 2.03125 0 L 2.03125 -8.0625 L 0.546875 -8.0625 L 0.546875 -10.46875 L 2.03125 -10.46875 L 2.03125 -11.484375 C 2.03125 -12.640625 2.421875 -13.550781 3.203125 -14.21875 C 3.984375 -14.894531 4.984375 -15.234375 6.203125 -15.234375 C 6.992188 -15.234375 7.773438 -15.09375 8.546875 -14.8125 L 8.078125 -12.0625 C 7.535156 -12.25 7.128906 -12.34375 6.859375 -12.34375 Z M 6.859375 -12.34375 "/></g></g></g><g fill="#ffffff" fill-opacity="1"><g transform="translate(125.703057, 20.685486)"><g><path d="M 1.375 0 L 1.375 -10.984375 L 4.984375 -10.984375 L 4.984375 0 Z M 3.1875 -16.046875 C 3.738281 -16.046875 4.191406 -15.863281 4.546875 -15.5 C 4.910156 -15.144531 5.09375 -14.6875 5.09375 -14.125 C 5.09375 -13.5625 4.910156 -13.097656 4.546875 -12.734375 C 4.191406 -12.367188 3.738281 -12.1875 3.1875 -12.1875 C 2.632812 -12.1875 2.175781 -12.367188 1.8125 -12.734375 C 1.457031 -13.097656 1.28125 -13.5625 1.28125 -14.125 C 1.28125 -14.6875 1.457031 -15.144531 1.8125 -15.5 C 2.175781 -15.863281 2.632812 -16.046875 3.1875 -16.046875 Z M 3.1875 -16.046875 "/></g></g></g><g fill="#ffffff" fill-opacity="1"><g transform="translate(130.841136, 20.685486)"><g><path d="M 3.90625 0 L -0.109375 -10.984375 L 3.578125 -10.984375 L 5.765625 -3.5625 L 7.921875 -10.984375 L 11.375 -10.984375 L 13.546875 -3.5625 L 15.75 -10.984375 L 19.28125 -10.984375 L 15.25 0 L 11.6875 0 L 9.59375 -6.78125 L 7.46875 0 Z M 3.90625 0 "/></g></g></g></svg>